<svg width="127" height="15" viewBox="0 0 127 15" fill="none" xmlns="http://www.w3.org/2000/svg">
<path d="M0 7.5C3.57748e-07 3.54575 3.28502 0.340193 7.33729 0.340193C11.3896 0.340194 6.23666 2.82977 6.23666 6.78402C6.23666 10.7383 11.3896 14.6598 7.33729 14.6598C3.28502 14.6598 -3.57748e-07 11.4543 0 7.5Z" fill="#2972FF"/>
<path d="M118.021 5.11865H115.266C115.187 4.68201 115.042 4.29521 114.831 3.95823C114.62 3.61652 114.357 3.327 114.043 3.0897C113.728 2.8524 113.37 2.67442 112.967 2.55577C112.569 2.43237 112.139 2.37067 111.678 2.37067C110.858 2.37067 110.131 2.57 109.497 2.96868C108.863 3.3626 108.367 3.94162 108.009 4.70574C107.65 5.46512 107.471 6.39298 107.471 7.48932C107.471 8.60465 107.65 9.54438 108.009 10.3085C108.372 11.0679 108.868 11.6421 109.497 12.0313C110.131 12.4158 110.855 12.608 111.67 12.608C112.122 12.608 112.545 12.551 112.938 12.4371C113.335 12.3185 113.692 12.1452 114.006 11.9174C114.325 11.6896 114.593 11.4096 114.809 11.0774C115.03 10.7451 115.182 10.3654 115.266 9.9383L118.021 9.95254C117.918 10.6455 117.694 11.2957 117.351 11.9032C117.012 12.5107 116.567 13.047 116.017 13.5121C115.467 13.9725 114.824 14.3332 114.087 14.5942C113.35 14.8505 112.532 14.9786 111.634 14.9786C110.307 14.9786 109.124 14.682 108.082 14.0888C107.041 13.4955 106.221 12.6388 105.622 11.5187C105.023 10.3987 104.723 9.05553 104.723 7.48932C104.723 5.91837 105.025 4.57523 105.629 3.4599C106.233 2.33982 107.056 1.48315 108.097 0.88989C109.138 0.29663 110.317 0 111.634 0C112.473 0 113.254 0.113906 113.976 0.341718C114.698 0.56953 115.342 0.90413 115.907 1.34552C116.471 1.78215 116.936 2.31846 117.299 2.95444C117.667 3.58567 117.908 4.30707 118.021 5.11865Z" fill="white"/>
<path d="M92.5041 14.7793V0.199335H102.317V2.41338H95.2374V6.37162H101.809V8.58567H95.2374V12.5653H102.376V14.7793H92.5041Z" fill="white"/>
<path d="M87.2309 4.2074C87.1621 3.58567 86.8723 3.10157 86.3615 2.7551C85.8556 2.40864 85.1975 2.23541 84.387 2.23541C83.8173 2.23541 83.3286 2.31846 82.9209 2.48458C82.5133 2.65069 82.2014 2.87613 81.9853 3.16089C81.7692 3.44566 81.6587 3.77076 81.6537 4.13621C81.6537 4.43996 81.725 4.70337 81.8674 4.92644C82.0147 5.1495 82.2137 5.33935 82.4641 5.49597C82.7146 5.64784 82.9921 5.77598 83.2967 5.8804C83.6012 5.98481 83.9082 6.07261 84.2176 6.14381L85.6321 6.48552C86.2019 6.61367 86.7495 6.7869 87.2751 7.00522C87.8055 7.22354 88.2795 7.49881 88.697 7.83104C89.1194 8.16326 89.4534 8.56431 89.6989 9.03417C89.9445 9.50403 90.0673 10.0546 90.0673 10.6858C90.0673 11.5401 89.8414 12.2924 89.3895 12.9426C88.9377 13.588 88.2844 14.0935 87.4298 14.4589C86.5801 14.8196 85.5511 15 84.3428 15C83.169 15 82.1498 14.8244 81.2854 14.4732C80.4258 14.122 79.7529 13.6094 79.2667 12.9355C78.7854 12.2615 78.525 11.4404 78.4858 10.4722H81.1749C81.2142 10.9801 81.3762 11.4025 81.6611 11.7394C81.946 12.0764 82.3168 12.328 82.7736 12.4941C83.2353 12.6602 83.751 12.7432 84.3207 12.7432C84.915 12.7432 85.4357 12.6578 85.8826 12.4869C86.3345 12.3113 86.6881 12.0693 86.9435 11.7608C87.1989 11.4476 87.3291 11.0821 87.334 10.6645C87.3291 10.2848 87.2137 9.97152 86.9877 9.72473C86.7618 9.47318 86.445 9.26436 86.0373 9.09824C85.6346 8.92738 85.1631 8.77551 84.6228 8.64262L82.9062 8.21547C81.6636 7.90698 80.6812 7.43949 79.9592 6.813C79.2421 6.18178 78.8836 5.34409 78.8836 4.29995C78.8836 3.44091 79.1243 2.68866 79.6056 2.04319C80.0918 1.39772 80.7525 0.89701 81.5874 0.541053C82.4224 0.180351 83.3679 0 84.4239 0C85.4946 0 86.4327 0.180351 87.2382 0.541053C88.0486 0.89701 88.6847 1.39298 89.1464 2.02895C89.6081 2.66018 89.8463 3.38633 89.861 4.2074H87.2309Z" fill="white"/>
<path d="M52.9356 14.7793V0.199335H62.749V2.41338H55.6689V6.37162H62.2406V8.58567H55.6689V12.5653H62.8079V14.7793H52.9356Z" fill="white"/>
<path d="M39.3004 14.7793V0.199335H45.0764C46.1668 0.199335 47.073 0.365448 47.795 0.697674C48.5219 1.02515 49.0646 1.47366 49.4232 2.04319C49.7866 2.61272 49.9684 3.25819 49.9684 3.97959C49.9684 4.57285 49.8505 5.08068 49.6147 5.50308C49.379 5.92074 49.0622 6.26008 48.6643 6.52112C48.2665 6.78215 47.822 6.96963 47.3308 7.08353V7.22591C47.8662 7.25439 48.3795 7.41338 48.8706 7.70289C49.3667 7.98766 49.7719 8.39108 50.0863 8.91315C50.4006 9.43522 50.5578 10.0664 50.5578 10.8068C50.5578 11.5615 50.3687 12.2402 49.9905 12.8429C49.6123 13.4409 49.0425 13.9131 48.2812 14.2596C47.5199 14.6061 46.5622 14.7793 45.4079 14.7793H39.3004ZM42.0337 12.5724H44.9733C45.9654 12.5724 46.6801 12.3897 47.1172 12.0242C47.5592 11.654 47.7803 11.1794 47.7803 10.6004C47.7803 10.1685 47.6697 9.77931 47.4487 9.43284C47.2277 9.08163 46.9134 8.80636 46.5057 8.60702C46.098 8.40294 45.6118 8.3009 45.0469 8.3009H42.0337V12.5724ZM42.0337 6.40009H44.7375C45.209 6.40009 45.6339 6.31704 46.0121 6.15093C46.3903 5.98007 46.6874 5.74039 46.9035 5.43189C47.1246 5.11865 47.2351 4.74846 47.2351 4.32131C47.2351 3.75653 47.0288 3.29141 46.6162 2.92596C46.2085 2.56051 45.602 2.37779 44.7965 2.37779H42.0337V6.40009Z" fill="white"/>
<path d="M23.6612 0.199335H26.7482L30.4392 6.64926H30.5866L34.2776 0.199335H37.3646L31.8759 9.34029V14.7793H29.1499V9.34029L23.6612 0.199335Z" fill="white"/>
<path d="M22.1896 5.11865H19.4342C19.3556 4.68201 19.2107 4.29521 18.9995 3.95823C18.7883 3.61652 18.5255 3.327 18.2112 3.0897C17.8968 2.8524 17.5383 2.67442 17.1355 2.55577C16.7377 2.43237 16.3079 2.37067 15.8462 2.37067C15.026 2.37067 14.2991 2.57 13.6655 2.96868C13.0319 3.3626 12.5358 3.94162 12.1773 4.70574C11.8187 5.46512 11.6394 6.39298 11.6394 7.48932C11.6394 8.60465 11.8187 9.54438 12.1773 10.3085C12.5407 11.0679 13.0368 11.6421 13.6655 12.0313C14.2991 12.4158 15.0235 12.608 15.8389 12.608C16.2907 12.608 16.7131 12.551 17.1061 12.4371C17.5039 12.3185 17.86 12.1452 18.1743 11.9174C18.4936 11.6896 18.7613 11.4096 18.9774 11.0774C19.1984 10.7451 19.3507 10.3654 19.4342 9.9383L22.1896 9.95254C22.0864 10.6455 21.863 11.2957 21.5191 11.9032C21.1802 12.5107 20.7357 13.047 20.1856 13.5121C19.6355 13.9725 18.9921 14.3332 18.2554 14.5942C17.5186 14.8505 16.7009 14.9786 15.802 14.9786C14.4759 14.9786 13.2922 14.682 12.2509 14.0888C11.2097 13.4955 10.3894 12.6388 9.79023 11.5187C9.19101 10.3987 8.89141 9.05553 8.89141 7.48932C8.89141 5.91837 9.19347 4.57523 9.7976 3.4599C10.4017 2.33982 11.2244 1.48315 12.2657 0.88989C13.3069 0.29663 14.4857 0 15.802 0C16.6419 0 17.4229 0.113906 18.1449 0.341718C18.8669 0.56953 19.5103 0.90413 20.0751 1.34552C20.64 1.78215 21.1041 2.31846 21.4676 2.95444C21.8359 3.58567 22.0766 4.30707 22.1896 5.11865Z" fill="white"/>
<path d="M127 7.5C127 11.4543 123.683 14.6598 119.59 14.6598C115.498 14.6598 120.702 12.1702 120.702 8.21598C120.702 4.26173 115.498 0.340193 119.59 0.340193C123.683 0.340193 127 3.54575 127 7.5Z" fill="#2972FF"/>
<path fill-rule="evenodd" clip-rule="evenodd" d="M65.5375 0.199335V14.7793H68.2709V9.43996H71.0522L74.0174 14.7793H77.0675L73.804 9.00714C73.9022 8.96886 73.9979 8.92803 74.0911 8.88467C74.8868 8.50973 75.4885 7.98054 75.8961 7.2971C76.3087 6.60892 76.515 5.79734 76.515 4.86236C76.515 3.93213 76.3111 3.11818 75.9035 2.4205C75.5007 1.71808 74.904 1.17228 74.1132 0.783104C73.3273 0.393925 72.3548 0.199335 71.1957 0.199335H65.5375ZM71.1589 9.43996C72.1822 9.43996 73.064 9.29569 73.804 9.00714L73.3323 8.17276H70.3485L71.0522 9.43996H71.1589ZM68.2709 7.24727H70.7905C71.4683 7.24727 72.0233 7.15709 72.4555 6.97674C72.8878 6.79165 73.207 6.52349 73.4133 6.17228C73.6245 5.81633 73.7301 5.37969 73.7301 4.86236C73.7301 4.34504 73.6245 3.90365 73.4133 3.53821C73.2021 3.16801 72.8804 2.88799 72.4482 2.69815C72.0159 2.50356 71.4585 2.40627 70.7758 2.40627H68.2709V7.24727Z" fill="white"/>
<path d="M73.3323 8.17276H70.3485L71.0522 9.43996H71.1589C72.1822 9.43996 73.064 9.29569 73.804 9.00714L73.3323 8.17276Z" fill="white"/>
</svg>
